<svg width="114" height="58" viewBox="0 0 114 58" fill="none" xmlns="http://www.w3.org/2000/svg">
<rect y="27" width="18" height="21" rx="2" fill="#8EF6E4"/>
<path d="M4.284 56.09C3.954 56.09 3.679 56.004 3.459 55.832C3.241 55.66 3.088 55.428 3 55.136L3.714 54.965C3.736 55.087 3.8 55.192 3.906 55.28C4.012 55.368 4.129 55.412 4.257 55.412C4.341 55.412 4.43 55.39 4.524 55.346C4.618 55.3 4.688 55.227 4.734 55.127C4.762 55.063 4.778 54.987 4.782 54.899C4.788 54.809 4.791 54.705 4.791 54.587V51.68H5.523V54.587C5.523 54.721 5.522 54.839 5.52 54.941C5.52 55.041 5.51 55.136 5.49 55.226C5.472 55.314 5.435 55.405 5.379 55.499C5.261 55.703 5.107 55.853 4.917 55.949C4.727 56.043 4.516 56.09 4.284 56.09ZM6.00867 56L7.37067 51.68H8.42967L9.79167 56H9.04767L7.81167 52.124H7.97367L6.75267 56H6.00867ZM6.76767 55.064V54.389H9.03567V55.064H6.76767ZM10.3341 56V51.68H11.0661L13.0701 54.725V51.68H13.8021V56H13.0701L11.0661 52.955V56H10.3341Z" fill="#BAB8D2"/>
<rect x="24" y="12" width="18" height="36" rx="2" fill="#8EF6E4"/>
<path d="M28.42 56V51.68H31.021V52.403H29.143V53.48H30.661V54.2H29.143V56H28.42ZM31.5606 56V51.68H34.3506V52.358H32.2836V53.423H33.9906V54.101H32.2836V55.322H34.3506V56H31.5606ZM35.0704 56V51.68H36.7834C37.0754 51.68 37.3144 51.739 37.5004 51.857C37.6884 51.973 37.8274 52.122 37.9174 52.304C38.0094 52.486 38.0554 52.674 38.0554 52.868C38.0554 53.106 37.9984 53.308 37.8844 53.474C37.7724 53.64 37.6194 53.752 37.4254 53.81V53.66C37.6974 53.722 37.9034 53.851 38.0434 54.047C38.1854 54.243 38.2564 54.466 38.2564 54.716C38.2564 54.972 38.2074 55.196 38.1094 55.388C38.0114 55.58 37.8654 55.73 37.6714 55.838C37.4794 55.946 37.2414 56 36.9574 56H35.0704ZM35.8024 55.319H36.8674C36.9934 55.319 37.1064 55.294 37.2064 55.244C37.3064 55.192 37.3844 55.12 37.4404 55.028C37.4984 54.934 37.5274 54.823 37.5274 54.695C37.5274 54.579 37.5024 54.475 37.4524 54.383C37.4024 54.291 37.3294 54.218 37.2334 54.164C37.1374 54.108 37.0224 54.08 36.8884 54.08H35.8024V55.319ZM35.8024 53.405H36.7744C36.8784 53.405 36.9714 53.385 37.0534 53.345C37.1354 53.305 37.2004 53.246 37.2484 53.168C37.2964 53.09 37.3204 52.994 37.3204 52.88C37.3204 52.73 37.2724 52.605 37.1764 52.505C37.0804 52.405 36.9464 52.355 36.7744 52.355H35.8024V53.405Z" fill="#BAB8D2"/>
<rect x="48" y="20" width="18" height="28" rx="2" fill="#8EF6E4"/>
<path d="M50.42 56V51.68H51.071L52.565 54.74L54.059 51.68H54.71V56H54.035V53.231L52.709 56H52.421L51.098 53.231V56H50.42ZM55.2528 56L56.6148 51.68H57.6738L59.0358 56H58.2918L57.0558 52.124H57.2178L55.9968 56H55.2528ZM56.0118 55.064V54.389H58.2798V55.064H56.0118ZM59.5782 56V51.68H61.3632C61.4052 51.68 61.4592 51.682 61.5252 51.686C61.5912 51.688 61.6522 51.694 61.7082 51.704C61.9582 51.742 62.1642 51.825 62.3262 51.953C62.4902 52.081 62.6112 52.243 62.6892 52.439C62.7692 52.633 62.8092 52.849 62.8092 53.087C62.8092 53.439 62.7202 53.742 62.5422 53.996C62.3642 54.248 62.0912 54.404 61.7232 54.464L61.4142 54.491H60.3012V56H59.5782ZM62.0592 56L61.2072 54.242L61.9422 54.08L62.8782 56H62.0592ZM60.3012 53.816H61.3332C61.3732 53.816 61.4182 53.814 61.4682 53.81C61.5182 53.806 61.5642 53.798 61.6062 53.786C61.7262 53.756 61.8202 53.703 61.8882 53.627C61.9582 53.551 62.0072 53.465 62.0352 53.369C62.0652 53.273 62.0802 53.179 62.0802 53.087C62.0802 52.995 62.0652 52.901 62.0352 52.805C62.0072 52.707 61.9582 52.62 61.8882 52.544C61.8202 52.468 61.7262 52.415 61.6062 52.385C61.5642 52.373 61.5182 52.366 61.4682 52.364C61.4182 52.36 61.3732 52.358 61.3332 52.358H60.3012V53.816Z" fill="#BAB8D2"/>
<rect x="72" y="6" width="18" height="42" rx="2" fill="#8EF6E4"/>
<path d="M75.12 56L76.482 51.68H77.541L78.903 56H78.159L76.923 52.124H77.085L75.864 56H75.12ZM75.879 55.064V54.389H78.147V55.064H75.879ZM79.4454 56V51.68H81.2304C81.2724 51.68 81.3264 51.682 81.3924 51.686C81.4584 51.688 81.5194 51.694 81.5754 51.704C81.8254 51.742 82.0314 51.825 82.1934 51.953C82.3574 52.081 82.4784 52.243 82.5564 52.439C82.6364 52.633 82.6764 52.849 82.6764 53.087C82.6764 53.323 82.6364 53.539 82.5564 53.735C82.4764 53.929 82.3544 54.09 82.1904 54.218C82.0284 54.346 81.8234 54.429 81.5754 54.467C81.5194 54.475 81.4574 54.481 81.3894 54.485C81.3234 54.489 81.2704 54.491 81.2304 54.491H80.1684V56H79.4454ZM80.1684 53.816H81.2004C81.2404 53.816 81.2854 53.814 81.3354 53.81C81.3854 53.806 81.4314 53.798 81.4734 53.786C81.5934 53.756 81.6874 53.703 81.7554 53.627C81.8254 53.551 81.8744 53.465 81.9024 53.369C81.9324 53.273 81.9474 53.179 81.9474 53.087C81.9474 52.995 81.9324 52.901 81.9024 52.805C81.8744 52.707 81.8254 52.62 81.7554 52.544C81.6874 52.468 81.5934 52.415 81.4734 52.385C81.4314 52.373 81.3854 52.366 81.3354 52.364C81.2854 52.36 81.2404 52.358 81.2004 52.358H80.1684V53.816ZM83.2774 56V51.68H85.0624C85.1044 51.68 85.1584 51.682 85.2244 51.686C85.2904 51.688 85.3514 51.694 85.4074 51.704C85.6574 51.742 85.8634 51.825 86.0254 51.953C86.1894 52.081 86.3104 52.243 86.3884 52.439C86.4684 52.633 86.5084 52.849 86.5084 53.087C86.5084 53.439 86.4194 53.742 86.2414 53.996C86.0634 54.248 85.7904 54.404 85.4224 54.464L85.1134 54.491H84.0004V56H83.2774ZM85.7584 56L84.9064 54.242L85.6414 54.08L86.5774 56H85.7584ZM84.0004 53.816H85.0324C85.0724 53.816 85.1174 53.814 85.1674 53.81C85.2174 53.806 85.2634 53.798 85.3054 53.786C85.4254 53.756 85.5194 53.703 85.5874 53.627C85.6574 53.551 85.7064 53.465 85.7344 53.369C85.7644 53.273 85.7794 53.179 85.7794 53.087C85.7794 52.995 85.7644 52.901 85.7344 52.805C85.7064 52.707 85.6574 52.62 85.5874 52.544C85.5194 52.468 85.4254 52.415 85.3054 52.385C85.2634 52.373 85.2174 52.366 85.1674 52.364C85.1174 52.36 85.0724 52.358 85.0324 52.358H84.0004V53.816Z" fill="#BAB8D2"/>
<rect x="96" width="18" height="48" rx="2" fill="#8EF6E4"/>
<path d="M99.42 56V51.68H100.071L101.565 54.74L103.059 51.68H103.71V56H103.035V53.231L101.709 56H101.421L100.098 53.231V56H99.42ZM104.253 56L105.615 51.68H106.674L108.036 56H107.292L106.056 52.124H106.218L104.997 56H104.253ZM105.012 55.064V54.389H107.28V55.064H105.012ZM109.271 56V54.23L107.801 51.68H108.644L109.637 53.402L110.627 51.68H111.47L110.003 54.23V56H109.271Z" fill="#BAB8D2"/>
</svg>
