<svg width="560" height="527" viewBox="0 0 560 527" fill="none" xmlns="http://www.w3.org/2000/svg">
<path d="M30 100.223C30 85.26 41.0258 72.5848 55.8446 70.5122L525.845 4.77704C543.89 2.25318 560 16.2668 560 34.4879V460.927C560 479.148 543.89 493.161 525.845 490.637L55.8446 424.902C41.0258 422.83 30 410.154 30 395.191V100.223Z" fill="#E6E4FF"/>
<path d="M30 100.223C30 85.26 41.0258 72.5848 55.8446 70.5122L525.845 4.77704C543.89 2.25318 560 16.2668 560 34.4879V460.927C560 479.148 543.89 493.161 525.845 490.637L55.8446 424.902C41.0258 422.83 30 410.154 30 395.191V100.223Z" fill="url(#paint0_linear_109_411)"/>
<path d="M0 131.223C0 116.26 11.0258 103.585 25.8446 101.512L495.845 35.777C513.89 33.2532 530 47.2668 530 65.4879V491.927C530 510.148 513.89 524.161 495.845 521.637L25.8446 455.902C11.0258 453.83 0 441.154 0 426.191V131.223Z" fill="#8C82FC"/>
<path d="M0 131.223C0 116.26 11.0258 103.585 25.8446 101.512L495.845 35.777C513.89 33.2532 530 47.2668 530 65.4879V491.927C530 510.148 513.89 524.161 495.845 521.637L25.8446 455.902C11.0258 453.83 0 441.154 0 426.191V131.223Z" fill="url(#paint1_linear_109_411)"/>
<defs>
<linearGradient id="paint0_linear_109_411" x1="30" y1="247.089" x2="560" y2="247.09" gradientUnits="userSpaceOnUse">
<stop stop-color="#F6F2FF"/>
<stop offset="1" stop-color="white" stop-opacity="0"/>
</linearGradient>
<linearGradient id="paint1_linear_109_411" x1="0" y1="278.089" x2="530" y2="278.09" gradientUnits="userSpaceOnUse">
<stop stop-color="#F6F2FF"/>
<stop offset="1" stop-color="white" stop-opacity="0"/>
</linearGradient>
</defs>
</svg>
